<svg xmlns="http://www.w3.org/2000/svg"  viewBox="0 0 30 30" width="30px" height="30px"><path fill="#fff" d="M13,28.5c-1.8,0-3.4-1-4.1-2.5l-1.8-3.5c-0.1-0.3-0.6-1.3-0.6-2.3c0-1.9,1.1-3.5,1.7-3.8l0.3-0.1V3 c0-0.8,0.7-1.5,1.5-1.5s1.5,0.7,1.5,1.5v7.5l0.8-0.6c0.4-0.3,0.8-0.4,1.2-0.4c0.8,0,1.6,0.5,1.9,1.3l0.3,0.7l0.5-0.5 c0.4-0.3,0.8-0.5,1.3-0.5c0.8,0,1.6,0.5,1.9,1.3l0.3,0.7l0.5-0.5c0.4-0.3,0.8-0.5,1.3-0.5c1.1,0,2,0.9,2,2V24 c0,2.5-2.1,4.5-4.6,4.5L13,28.5L13,28.5z"/><path fill="#788b9c" d="M10,2c0.6,0,1,0.4,1,1v6.5v2l1.6-1.2c0.2-0.1,0.5-0.3,0.9-0.3c0.6,0,1.2,0.4,1.4,1l0.5,1.4l1.1-1 c0.2-0.2,0.5-0.4,1-0.4c0.6,0,1.2,0.4,1.4,1l0.5,1.4l1.1-1c0.2-0.2,0.5-0.4,1-0.4c0.8,0,1.5,0.7,1.5,1.5V24c0,2.2-1.9,4-4.1,4h-5.7 H13c-1.6,0-3-0.9-3.7-2.2l-1.8-3.5C7.2,21.5,7,20.8,7,20.2c0-1.8,1.1-3.2,1.4-3.3L9,16.6V16V3C9,2.4,9.4,2,10,2 M10,1 C8.9,1,8,1.9,8,3v13c-0.8,0.4-2,2.1-2,4.2c0,1.1,0.4,2.1,0.6,2.6l1.8,3.5C9.3,27.9,11.1,29,13,29c0,0,0,0,0.1,0c0.8,0,5.7,0,5.7,0 c2.8,0,5.1-2.2,5.1-5V13.5c0-1.4-1.1-2.5-2.5-2.5c-0.6,0-1.2,0.2-1.7,0.6c-0.4-1-1.3-1.6-2.3-1.6c-0.6,0-1.2,0.2-1.7,0.6 c-0.4-1-1.3-1.6-2.3-1.6c-0.6,0-1.1,0.2-1.5,0.5c0-3,0-6.5,0-6.5C12,1.9,11.1,1,10,1L10,1z"/><path fill="#788b9c" d="M15 16H16V23H15zM12 16H13V23H12zM18 16H19V23H18z"/></svg>