<svg width="59" height="59" viewBox="0 0 59 59" fill="none" xmlns="http://www.w3.org/2000/svg">
<g clip-path="url(#clip0_117_0)">
<path d="M58.8703 57.316L49.2316 38.762L50.9817 37.2977C51.2437 37.0785 51.3949 36.7548 51.3949 36.4136V8.58496C51.3949 3.85135 47.5436 0 42.8099 0H16.1908C11.4572 0 7.60584 3.85135 7.60584 8.58496V12.5605C7.60584 13.1966 8.12215 13.7129 8.75819 13.7129C9.39468 13.7129 9.91053 13.1966 9.91053 12.5605V8.58496C9.91053 5.12208 12.7279 2.30469 16.1908 2.30469H42.8099C46.2728 2.30469 49.0902 5.12208 49.0902 8.58496V35.8753L40.0461 43.4429H36.7601V41.772C36.7601 41.136 36.2443 40.6197 35.6078 40.6197C34.9713 40.6197 34.4555 41.136 34.4555 41.772V43.4429H30.9552V41.772C30.9552 41.136 30.4394 40.6197 29.8033 40.6197C29.1668 40.6197 28.651 41.136 28.651 41.772V43.4429H25.1507V41.772C25.1507 41.136 24.6349 40.6197 23.9984 40.6197C23.3623 40.6197 22.846 41.136 22.846 41.772V43.4429H18.9546L9.91053 35.8753V23.3926C9.91053 22.7561 9.39468 22.2402 8.75819 22.2402C8.12215 22.2402 7.60584 22.7561 7.60584 23.3926V36.4141C7.60584 36.7553 7.75709 37.0789 8.01907 37.2977L9.76919 38.762L0.130463 57.316C-0.163024 57.8805 0.0570916 58.5764 0.62156 58.8699C0.791711 58.9581 0.973115 58.9995 1.15182 58.9995C1.56819 58.9995 1.97061 58.7736 2.17542 58.3784L11.5792 40.2767L13.1718 41.6091L7.10619 57.4349C6.87843 58.0291 7.17551 58.6953 7.76969 58.9235C7.90563 58.9752 8.04472 59 8.18202 59C8.6452 59 9.08228 58.7182 9.25829 58.2595L10.4763 55.0816H39.7562C40.3923 55.0816 40.9086 54.5657 40.9086 53.9292C40.9086 53.2927 40.3923 52.7769 39.7562 52.7769H11.3595L12.2472 50.4614C12.2962 50.4677 12.3453 50.4722 12.3962 50.4722H46.5645C46.6284 50.4722 46.6906 50.4659 46.7513 50.456L49.7425 58.2595C49.9185 58.7182 50.3551 59 50.8187 59C50.956 59 51.0951 58.9752 51.2311 58.9235C51.8252 58.6953 52.1223 58.0291 51.8946 57.4349L45.829 41.6091L47.4216 40.2767L56.8253 58.3784C57.0306 58.7736 57.4326 58.9995 57.8489 58.9995C58.0276 58.9995 58.2095 58.9581 58.3792 58.8699C58.9437 58.5764 59.1638 57.881 58.8703 57.316V57.316ZM45.8745 48.1675H13.1263L15.0407 43.1728L17.7969 45.4793C18.0039 45.6526 18.2659 45.7476 18.5365 45.7476H40.4647C40.7353 45.7476 40.9968 45.6526 41.2039 45.4793L43.96 43.1728L45.8745 48.1675Z" fill="black"/>
<path d="M44.4805 52.7769C44.1771 52.7769 43.88 52.9002 43.6657 53.1145C43.4515 53.3292 43.3281 53.6263 43.3281 53.9292C43.3281 54.2326 43.451 54.5297 43.6657 54.7439C43.88 54.9582 44.1771 55.0815 44.4805 55.0815C44.7834 55.0815 45.0805 54.9582 45.2948 54.7439C45.5095 54.5297 45.6328 54.2326 45.6328 53.9292C45.6328 53.6263 45.5095 53.3292 45.2948 53.1145C45.0805 52.9002 44.7834 52.7769 44.4805 52.7769Z" fill="black"/>
<path d="M45.8633 11.7539C45.8633 9.84759 44.3126 8.29688 42.4062 8.29688H16.5938C14.6879 8.29688 13.1367 9.84759 13.1367 11.7539V21.8945C13.1367 23.8008 14.6879 25.3516 16.5938 25.3516H42.4062C44.3126 25.3516 45.8633 23.8008 45.8633 21.8945V11.7539ZM15.4414 21.8945V11.7539C15.4414 11.1183 15.9586 10.6016 16.5938 10.6016H28.3477V23.0469H16.5938C15.9586 23.0469 15.4414 22.5297 15.4414 21.8945ZM43.5586 21.8945C43.5586 22.5297 43.0414 23.0469 42.4062 23.0469H30.6523V10.6016H42.4062C43.0414 10.6016 43.5586 11.1183 43.5586 11.7539V21.8945Z" fill="#F3580B"/>
<path d="M17.0164 36.1836C19.1766 36.1836 20.9344 34.4258 20.9344 32.2656C20.9344 30.105 19.1766 28.3477 17.0164 28.3477C14.8562 28.3477 13.0984 30.105 13.0984 32.2656C13.0984 34.4258 14.8562 36.1836 17.0164 36.1836ZM17.0164 30.6523C17.9059 30.6523 18.6297 31.3757 18.6297 32.2656C18.6297 33.1551 17.9059 33.8789 17.0164 33.8789C16.127 33.8789 15.4031 33.1551 15.4031 32.2656C15.4031 31.3757 16.127 30.6523 17.0164 30.6523Z" fill="black"/>
<path d="M41.9453 28.3477C39.7847 28.3477 38.0273 30.105 38.0273 32.2656C38.0273 34.4258 39.7847 36.1836 41.9453 36.1836C44.1055 36.1836 45.8633 34.4258 45.8633 32.2656C45.8633 30.105 44.1055 28.3477 41.9453 28.3477ZM41.9453 33.8789C41.0554 33.8789 40.332 33.1551 40.332 32.2656C40.332 31.3757 41.0554 30.6523 41.9453 30.6523C42.8348 30.6523 43.5586 31.3757 43.5586 32.2656C43.5586 33.1551 42.8348 33.8789 41.9453 33.8789Z" fill="black"/>
<path d="M35.6075 28.3621H23.998C23.362 28.3621 22.8457 28.8779 22.8457 29.5144C22.8457 30.1509 23.362 30.6667 23.998 30.6667H35.6075C36.2439 30.6667 36.7598 30.1509 36.7598 29.5144C36.7598 28.8779 36.2439 28.3621 35.6075 28.3621Z" fill="black"/>
<path d="M35.6075 33.8789H23.998C23.362 33.8789 22.8457 34.3948 22.8457 35.0312C22.8457 35.6673 23.362 36.1836 23.998 36.1836H35.6075C36.2439 36.1836 36.7598 35.6673 36.7598 35.0312C36.7598 34.3948 36.2439 33.8789 35.6075 33.8789Z" fill="black"/>
<path d="M8.75781 18.9363C9.0612 18.9363 9.35829 18.8143 9.57256 18.5987C9.78682 18.3844 9.91016 18.0882 9.91016 17.7839C9.91016 17.481 9.78682 17.1839 9.57256 16.9696C9.35829 16.7549 9.0612 16.6316 8.75781 16.6316C8.45487 16.6316 8.15778 16.7549 7.94307 16.9696C7.72881 17.1839 7.60547 17.481 7.60547 17.7839C7.60547 18.0882 7.72881 18.3844 7.94307 18.5987C8.15778 18.8143 8.45487 18.9363 8.75781 18.9363Z" fill="black"/>
</g>
<defs>
<clipPath id="clip0_117_0">
<rect width="59" height="59" fill="white"/>
</clipPath>
</defs>
</svg>
